{"title":"Robots 2005 720p Bluray AC 3 X264-hotpena","uid":9527113,"size":2880002121,"categoryP":"video","categoryS":"hd___movies","magnet":"?xt=urn:btih:3184a2f998dc1f0023e19b3a8fe03117b64864ec&amp;dn=Robots+2005+720p+Bluray+AC+3+X264-hotpena&amp;tr=udp%3A%2F%2Ftracker.openbittorrent.com%3A80&amp;tr=udp%3A%2F%2Fopen.demonii.com%3A1337&amp;tr=udp%3A%2F%2Ftracker.coppersurfer.tk%3A6969&amp;tr=udp%3A%2F%2Fexodus.desync.com%3A6969","seeders":2,"leechers":0,"uploader":"hotpena","files":-1,"time":1390769051,"description":"PLOT\nIn a robot world, a young idealistic inventor travels to the big city to join his inspiration's company, only to find himself opposing its sinister new management.\n\n\nACTORS\nEwan McGregor, Halle Berry, Mel Brooks\n\n\nRELEASED\n2005\n\n\nIMDB &lt;a href=&quot;\nhttp://www.imdb.com/title/tt0358082/&quot; rel=&quot;nofollow&quot; target=&quot;_NEW&quot;&gt;\nhttp://www.imdb.com/title/tt0358082/&lt;/a&gt;\n\n &lt;a href=&quot;\nhttp://www.imgclik.com/viewer.php?file=18381930029543601167.jpg&quot; rel=&quot;nofollow&quot; target=&quot;_NEW&quot;&gt;\nhttp://www.imgclik.com/viewer.php?file=18381930029543601167.jpg&lt;/a&gt;\n &lt;a href=&quot;\nhttp://www.imgclik.com/viewer.php?file=61013815176279131001.jpg&quot; rel=&quot;nofollow&quot; target=&quot;_NEW&quot;&gt;\nhttp://www.imgclik.com/viewer.php?file=61013815176279131001.jpg&lt;/a&gt;\n &lt;a href=&quot;\nhttp://www.imgclik.com/viewer.php?file=82564486166768628594.jpg&quot; rel=&quot;nofollow&quot; target=&quot;_NEW&quot;&gt;\nhttp://www.imgclik.com/viewer.php?file=82564486166768628594.jpg&lt;/a&gt;\n\nFormat\t : Matroska/MKV\n\nSIZE:\n2879993672 bytes (2.68 GiB),\n\nDURATION:\n01:29:47,\n\nAVG-BITRATE:\n4277 kb/s\n\nAUDIO:\nFormat : AC-3\nFormat/Info : Audio Coding 3\nBit rate : 256 Kbps\nChannel count : 2 channels\nSampling rate : 48.0 KHz\nBit depth : 16 bits\nStream size : 164 MiB\n\nVIDEO:\nFormat : AVC\nCodec ID : H264\nDuration : 1h 29mn\nBit rate : 4 000 Kbps\nWidth : 1 280 pixels\nHeight : 720 pixels\nDisplay aspect ratio : 1.85:1\nFrame rate : 23.976 fps\nColor space : YUV\nChroma subsampling : 4:2:0\nBit depth : 8 bits\nBits/(Pixel*Frame) : 0.181\nStream size : 2.52 GiB (94%)\nWriting library : x264 core\n\n\nENCODER: hotpena\n","torrent":{"xt":"urn:btih:3184a2f998dc1f0023e19b3a8fe03117b64864ec","amp;dn":"Robots+2005+720p+Bluray+AC+3+X264-hotpena","amp;tr":["udp%3A%2F%2Ftracker.openbittorrent.com%3A80","udp%3A%2F%2Fopen.demonii.com%3A1337","udp%3A%2F%2Ftracker.coppersurfer.tk%3A6969","udp%3A%2F%2Fexodus.desync.com%3A6969"],"infoHash":"3184a2f998dc1f0023e19b3a8fe03117b64864ec","infoHashBuffer":{"type":"Buffer","data":[49,132,162,249,152,220,31,0,35,225,155,58,143,224,49,23,182,72,100,236]},"announce":[],"urlList":[]}}